<svg width="79" height="63" viewBox="0 0 79 63" fill="none" xmlns="http://www.w3.org/2000/svg">
<g id="Group 1573">
<path id="Union" d="M76.4692 17.0389C77.7085 17.9197 79 19.3002 79 21.2397V27.5522C79 29.4916 77.7085 30.8722 76.4692 31.7529C75.7659 32.2528 74.9315 32.702 74 33.1039V34.9167C74 35.3511 73.9352 35.7574 73.8208 36.1363C74.4986 36.9251 75 37.9166 75 39.1251V45.4376C75 47.377 73.7085 48.7576 72.4692 49.6383C71.1602 50.5687 69.3973 51.3236 67.3987 51.9244C63.3741 53.1342 57.9305 53.8542 52 53.8542C46.0695 53.8542 40.6258 53.1342 36.6013 51.9244C34.6027 51.3236 32.8398 50.5687 31.5308 49.6383C30.2915 48.7576 29 47.377 29 45.4376V39.1251C29 38.6907 29.0648 38.2844 29.1792 37.9055C28.5014 37.1167 28 36.1252 28 34.9167V28.6042C28 26.6648 29.2915 25.2842 30.5308 24.4035C31.2341 23.9036 32.0685 23.4544 33 23.0525V21.2397C33 19.3002 34.2915 17.9197 35.5308 17.0389C36.8398 16.1086 38.6027 15.3536 40.6013 14.7528C44.6258 13.5431 50.0695 12.823 56 12.823C61.9305 12.823 67.3741 13.5431 71.3987 14.7528C73.3973 15.3536 75.1602 16.1086 76.4692 17.0389Z" fill="#021024" fill-opacity="0.1"/>
<g id="Group 989">
<path id="Union_2" d="M71 37.021C71 33.5347 61.598 30.7085 50 30.7085C38.402 30.7085 29 33.5347 29 37.021V43.3335C29 46.8198 38.402 49.646 50 49.646C61.598 49.646 71 46.8198 71 43.3335V37.021Z" fill="#D18A00"/>
<path id="Union (Stroke)" fill-rule="evenodd" clip-rule="evenodd" d="M70.4692 32.8202C71.7085 33.7009 73 35.0815 73 37.0209V43.3334C73 45.2729 71.7085 46.6534 70.4692 47.5342C69.1602 48.4645 67.3973 49.2194 65.3987 49.8202C61.3741 51.03 55.9305 51.7501 50 51.7501C44.0695 51.7501 38.6258 51.03 34.6013 49.8202C32.6027 49.2194 30.8398 48.4645 29.5308 47.5342C28.2915 46.6534 27 45.2729 27 43.3334V37.0209C27 35.0815 28.2915 33.7009 29.5308 32.8202C30.8398 31.8898 32.6027 31.1349 34.6013 30.5341C38.6258 29.3243 44.0695 28.6042 50 28.6042C55.9305 28.6042 61.3741 29.3243 65.3987 30.5341C67.3973 31.1349 69.1602 31.8898 70.4692 32.8202ZM50 30.7084C61.598 30.7084 71 33.5346 71 37.0209V43.3334C71 46.8197 61.598 49.6459 50 49.6459C38.402 49.6459 29 46.8197 29 43.3334V37.0209C29 33.5346 38.402 30.7084 50 30.7084Z" fill="#B96F00"/>
<path id="Ellipse 732" d="M71 37.021C71 40.5073 61.598 43.3335 50 43.3335C38.402 43.3335 29 40.5073 29 37.021C29 33.5347 38.402 30.7085 50 30.7085C61.598 30.7085 71 33.5347 71 37.021Z" fill="#FFCF23"/>
<path id="Ellipse 732 (Stroke)" fill-rule="evenodd" clip-rule="evenodd" d="M65.3987 43.5077C61.3741 44.7175 55.9305 45.4376 50 45.4376C44.0695 45.4376 38.6258 44.7175 34.6013 43.5077C32.6027 42.9069 30.8398 42.152 29.5308 41.2217C28.2915 40.3409 27 38.9604 27 37.0209C27 35.0815 28.2915 33.7009 29.5308 32.8202C30.8398 31.8898 32.6027 31.1349 34.6013 30.5341C38.6258 29.3243 44.0695 28.6042 50 28.6042C55.9305 28.6042 61.3741 29.3243 65.3987 30.5341C67.3973 31.1349 69.1602 31.8898 70.4692 32.8202C71.7085 33.7009 73 35.0815 73 37.0209C73 38.9604 71.7085 40.3409 70.4692 41.2217C69.1602 42.152 67.3973 42.9069 65.3987 43.5077ZM50 43.3334C61.598 43.3334 71 40.5072 71 37.0209C71 33.5346 61.598 30.7084 50 30.7084C38.402 30.7084 29 33.5346 29 37.0209C29 40.5072 38.402 43.3334 50 43.3334Z" fill="#B96F00"/>
<path id="Vector 607 (Stroke)" fill-rule="evenodd" clip-rule="evenodd" d="M34 41.2292C34.5523 41.2292 35 41.7003 35 42.2813V48.0678C35 48.6488 34.5523 49.1199 34 49.1199C33.4477 49.1199 33 48.6488 33 48.0678V42.2813C33 41.7003 33.4477 41.2292 34 41.2292Z" fill="#B96F00"/>
<path id="Vector 609 (Stroke)" fill-rule="evenodd" clip-rule="evenodd" d="M66 41.2292C66.5523 41.2292 67 41.7003 67 42.2813V48.0678C67 48.6488 66.5523 49.1199 66 49.1199C65.4477 49.1199 65 48.6488 65 48.0678V42.2813C65 41.7003 65.4477 41.2292 66 41.2292Z" fill="#B96F00"/>
<path id="Vector 608 (Stroke)" fill-rule="evenodd" clip-rule="evenodd" d="M42 43.3335C42.5523 43.3335 43 43.8045 43 44.3856V49.12C43 49.701 42.5523 50.172 42 50.172C41.4477 50.172 41 49.701 41 49.12V44.3856C41 43.8045 41.4477 43.3335 42 43.3335Z" fill="#B96F00"/>
<path id="Vector 610 (Stroke)" fill-rule="evenodd" clip-rule="evenodd" d="M59 43.3335C59.5523 43.3335 60 43.8045 60 44.3856V49.12C60 49.701 59.5523 50.172 59 50.172C58.4477 50.172 58 49.701 58 49.12V44.3856C58 43.8045 58.4477 43.3335 59 43.3335Z" fill="#B96F00"/>
<path id="Vector 611 (Stroke)" fill-rule="evenodd" clip-rule="evenodd" d="M51 43.3335C51.5523 43.3335 52 43.8045 52 44.3856V49.12C52 49.701 51.5523 50.172 51 50.172C50.4477 50.172 50 49.701 50 49.12V44.3856C50 43.8045 50.4477 43.3335 51 43.3335Z" fill="#B96F00"/>
</g>
<g id="Group 990">
<path id="Union_3" d="M70 26.5002C70 23.0139 60.598 20.1877 49 20.1877C37.402 20.1877 28 23.0139 28 26.5002V32.8127C28 36.299 37.402 39.1252 49 39.1252C60.598 39.1252 70 36.299 70 32.8127V26.5002Z" fill="#D18A00"/>
<path id="Union (Stroke)_2" fill-rule="evenodd" clip-rule="evenodd" d="M69.4692 22.2994C70.7085 23.1802 72 24.5607 72 26.5002V32.8127C72 34.7521 70.7085 36.1327 69.4692 37.0134C68.1602 37.9437 66.3973 38.6987 64.3987 39.2995C60.3741 40.5092 54.9305 41.2293 49 41.2293C43.0695 41.2293 37.6258 40.5092 33.6013 39.2995C31.6027 38.6987 29.8398 37.9437 28.5308 37.0134C27.2915 36.1327 26 34.7521 26 32.8127V26.5002C26 24.5607 27.2915 23.1802 28.5308 22.2994C29.8398 21.3691 31.6027 20.6141 33.6013 20.0133C37.6258 18.8036 43.0695 18.0835 49 18.0835C54.9305 18.0835 60.3741 18.8036 64.3987 20.0133C66.3973 20.6141 68.1602 21.3691 69.4692 22.2994ZM49 20.1877C60.598 20.1877 70 23.0139 70 26.5002V32.8127C70 36.299 60.598 39.1252 49 39.1252C37.402 39.1252 28 36.299 28 32.8127V26.5002C28 23.0139 37.402 20.1877 49 20.1877Z" fill="#B96F00"/>
<path id="Ellipse 732_2" d="M70 26.5002C70 29.9865 60.598 32.8127 49 32.8127C37.402 32.8127 28 29.9865 28 26.5002C28 23.0139 37.402 20.1877 49 20.1877C60.598 20.1877 70 23.0139 70 26.5002Z" fill="#FFCF23"/>
<path id="Ellipse 732 (Stroke)_2" fill-rule="evenodd" clip-rule="evenodd" d="M64.3987 32.987C60.3741 34.1967 54.9305 34.9168 49 34.9168C43.0695 34.9168 37.6258 34.1967 33.6013 32.987C31.6027 32.3862 29.8398 31.6312 28.5308 30.7009C27.2915 29.8202 26 28.4396 26 26.5002C26 24.5607 27.2915 23.1802 28.5308 22.2994C29.8398 21.3691 31.6027 20.6141 33.6013 20.0133C37.6258 18.8036 43.0695 18.0835 49 18.0835C54.9305 18.0835 60.3741 18.8036 64.3987 20.0133C66.3973 20.6141 68.1602 21.3691 69.4692 22.2994C70.7085 23.1802 72 24.5607 72 26.5002C72 28.4396 70.7085 29.8202 69.4692 30.7009C68.1602 31.6312 66.3973 32.3862 64.3987 32.987ZM49 32.8127C60.598 32.8127 70 29.9865 70 26.5002C70 23.0139 60.598 20.1877 49 20.1877C37.402 20.1877 28 23.0139 28 26.5002C28 29.9865 37.402 32.8127 49 32.8127Z" fill="#B96F00"/>
<path id="Vector 607 (Stroke)_2" fill-rule="evenodd" clip-rule="evenodd" d="M33 30.7085C33.5523 30.7085 34 31.1795 34 31.7606V37.547C34 38.1281 33.5523 38.5991 33 38.5991C32.4477 38.5991 32 38.1281 32 37.547V31.7606C32 31.1795 32.4477 30.7085 33 30.7085Z" fill="#B96F00"/>
<path id="Vector 609 (Stroke)_2" fill-rule="evenodd" clip-rule="evenodd" d="M65 30.7085C65.5523 30.7085 66 31.1795 66 31.7606V37.547C66 38.1281 65.5523 38.5991 65 38.5991C64.4477 38.5991 64 38.1281 64 37.547V31.7606C64 31.1795 64.4477 30.7085 65 30.7085Z" fill="#B96F00"/>
<path id="Vector 608 (Stroke)_2" fill-rule="evenodd" clip-rule="evenodd" d="M41 32.8127C41.5523 32.8127 42 33.2838 42 33.8648V38.5992C42 39.1803 41.5523 39.6513 41 39.6513C40.4477 39.6513 40 39.1803 40 38.5992V33.8648C40 33.2838 40.4477 32.8127 41 32.8127Z" fill="#B96F00"/>
<path id="Vector 610 (Stroke)_2" fill-rule="evenodd" clip-rule="evenodd" d="M58 32.8127C58.5523 32.8127 59 33.2838 59 33.8648V38.5992C59 39.1803 58.5523 39.6513 58 39.6513C57.4477 39.6513 57 39.1803 57 38.5992V33.8648C57 33.2838 57.4477 32.8127 58 32.8127Z" fill="#B96F00"/>
<path id="Vector 611 (Stroke)_2" fill-rule="evenodd" clip-rule="evenodd" d="M50 32.8127C50.5523 32.8127 51 33.2838 51 33.8648V38.5992C51 39.1803 50.5523 39.6513 50 39.6513C49.4477 39.6513 49 39.1803 49 38.5992V33.8648C49 33.2838 49.4477 32.8127 50 32.8127Z" fill="#B96F00"/>
</g>
<g id="Group 991">
<path id="Union_4" d="M75 19.1355C75 15.6492 65.598 12.823 54 12.823C42.402 12.823 33 15.6492 33 19.1355V25.448C33 28.9343 42.402 31.7605 54 31.7605C65.598 31.7605 75 28.9343 75 25.448V19.1355Z" fill="#D18A00"/>
<path id="Union (Stroke)_3" fill-rule="evenodd" clip-rule="evenodd" d="M74.4692 14.9347C75.7085 15.8154 77 17.196 77 19.1354V25.4479C77 27.3874 75.7085 28.7679 74.4692 29.6487C73.1602 30.579 71.3973 31.3339 69.3987 31.9347C65.3741 33.1445 59.9305 33.8646 54 33.8646C48.0695 33.8646 42.6258 33.1445 38.6013 31.9347C36.6027 31.3339 34.8398 30.579 33.5308 29.6487C32.2915 28.7679 31 27.3874 31 25.4479V19.1354C31 17.196 32.2915 15.8154 33.5308 14.9347C34.8398 14.0043 36.6027 13.2494 38.6013 12.6486C42.6258 11.4388 48.0695 10.7188 54 10.7188C59.9305 10.7188 65.3741 11.4388 69.3987 12.6486C71.3973 13.2494 73.1602 14.0043 74.4692 14.9347ZM54 12.8229C65.598 12.8229 75 15.6491 75 19.1354V25.4479C75 28.9342 65.598 31.7604 54 31.7604C42.402 31.7604 33 28.9342 33 25.4479V19.1354C33 15.6491 42.402 12.8229 54 12.8229Z" fill="#B96F00"/>
<path id="Ellipse 732_3" d="M75 19.1355C75 22.6218 65.598 25.448 54 25.448C42.402 25.448 33 22.6218 33 19.1355C33 15.6492 42.402 12.823 54 12.823C65.598 12.823 75 15.6492 75 19.1355Z" fill="#FFCF23"/>
<path id="Ellipse 732 (Stroke)_3" fill-rule="evenodd" clip-rule="evenodd" d="M69.3987 25.6222C65.3741 26.832 59.9305 27.5521 54 27.5521C48.0695 27.5521 42.6258 26.832 38.6013 25.6222C36.6027 25.0214 34.8398 24.2665 33.5308 23.3362C32.2915 22.4554 31 21.0749 31 19.1354C31 17.196 32.2915 15.8154 33.5308 14.9347C34.8398 14.0043 36.6027 13.2494 38.6013 12.6486C42.6258 11.4388 48.0695 10.7188 54 10.7188C59.9305 10.7188 65.3741 11.4388 69.3987 12.6486C71.3973 13.2494 73.1602 14.0043 74.4692 14.9347C75.7085 15.8154 77 17.196 77 19.1354C77 21.0749 75.7085 22.4554 74.4692 23.3362C73.1602 24.2665 71.3973 25.0214 69.3987 25.6222ZM54 25.4479C65.598 25.4479 75 22.6217 75 19.1354C75 15.6491 65.598 12.8229 54 12.8229C42.402 12.8229 33 15.6491 33 19.1354C33 22.6217 42.402 25.4479 54 25.4479Z" fill="#B96F00"/>
<path id="Vector 607 (Stroke)_3" fill-rule="evenodd" clip-rule="evenodd" d="M38 23.3438C38.5523 23.3438 39 23.8148 39 24.3958V30.1823C39 30.7633 38.5523 31.2344 38 31.2344C37.4477 31.2344 37 30.7633 37 30.1823V24.3958C37 23.8148 37.4477 23.3438 38 23.3438Z" fill="#B96F00"/>
<path id="Vector 609 (Stroke)_3" fill-rule="evenodd" clip-rule="evenodd" d="M70 23.3438C70.5523 23.3438 71 23.8148 71 24.3958V30.1823C71 30.7633 70.5523 31.2344 70 31.2344C69.4477 31.2344 69 30.7633 69 30.1823V24.3958C69 23.8148 69.4477 23.3438 70 23.3438Z" fill="#B96F00"/>
<path id="Vector 608 (Stroke)_3" fill-rule="evenodd" clip-rule="evenodd" d="M46 25.448C46.5523 25.448 47 25.919 47 26.5001V31.2345C47 31.8155 46.5523 32.2865 46 32.2865C45.4477 32.2865 45 31.8155 45 31.2345V26.5001C45 25.919 45.4477 25.448 46 25.448Z" fill="#B96F00"/>
<path id="Vector 610 (Stroke)_3" fill-rule="evenodd" clip-rule="evenodd" d="M63 25.448C63.5523 25.448 64 25.919 64 26.5001V31.2345C64 31.8155 63.5523 32.2865 63 32.2865C62.4477 32.2865 62 31.8155 62 31.2345V26.5001C62 25.919 62.4477 25.448 63 25.448Z" fill="#B96F00"/>
<path id="Vector 611 (Stroke)_3" fill-rule="evenodd" clip-rule="evenodd" d="M55 25.448C55.5523 25.448 56 25.919 56 26.5001V31.2345C56 31.8155 55.5523 32.2865 55 32.2865C54.4477 32.2865 54 31.8155 54 31.2345V26.5001C54 25.919 54.4477 25.448 55 25.448Z" fill="#B96F00"/>
</g>
<path id="Union_5" d="M51 10.7189C51 8.77947 49.7085 7.39891 48.4692 6.51817C47.1602 5.58783 45.3973 4.83288 43.3987 4.23209C39.3741 3.02234 33.9305 2.30225 28 2.30225C22.0695 2.30225 16.6258 3.02234 12.6013 4.23209C10.6027 4.83288 8.83984 5.58783 7.53076 6.51817C6.29149 7.39891 5 8.77947 5 10.7189V17.0314C5 18.9708 6.29149 20.3514 7.53076 21.2321C8.40284 21.8519 9.47629 22.3939 10.6867 22.8642C10.3145 22.9622 9.9525 23.064 9.60132 23.1696C7.60266 23.7704 5.83984 24.5253 4.53076 25.4557C3.29149 26.3364 2 27.717 2 29.6564V35.9689C2 37.9083 3.29149 39.2889 4.53076 40.1697C5.70691 41.0055 7.24934 41.6998 9 42.2679V42.4597C8.46431 42.7341 7.97179 43.0277 7.53076 43.3411C6.29149 44.2218 5 45.6024 5 47.5418V53.8543C5 55.7938 6.29149 57.1743 7.53076 58.0551C8.83984 58.9854 10.6027 59.7404 12.6013 60.3411C16.6258 61.5509 22.0695 62.271 28 62.271C33.9305 62.271 39.3741 61.5509 43.3987 60.3411C45.3973 59.7404 47.1602 58.9854 48.4692 58.0551C49.7085 57.1743 51 55.7938 51 53.8543V49.4677C51.5357 49.1933 52.0282 48.8997 52.4692 48.5863C53.7085 47.7056 55 46.325 55 44.3856V38.0731C55 36.1336 53.7085 34.7531 52.4692 33.8723C51.8572 33.4374 51.146 33.0407 50.3578 32.6803C51.9609 32.135 53.3739 31.4793 54.4692 30.7009C55.7085 29.8202 57 28.4396 57 26.5002V20.1877C57 18.2482 55.7085 16.8677 54.4692 15.9869C53.5226 15.3142 52.3387 14.7331 51 14.2358V10.7189Z" fill="#021024" fill-opacity="0.1"/>
<g id="Group 987">
<path id="Union_6" d="M47 45.4377C47 41.9514 37.598 39.1252 26 39.1252C14.402 39.1252 5 41.9514 5 45.4377V51.7502C5 55.2365 14.402 58.0627 26 58.0627C37.598 58.0627 47 55.2365 47 51.7502V45.4377Z" fill="#D18A00"/>
<path id="Union (Stroke)_4" fill-rule="evenodd" clip-rule="evenodd" d="M46.4692 41.2369C47.7085 42.1177 49 43.4982 49 45.4377V51.7502C49 53.6896 47.7085 55.0702 46.4692 55.9509C45.1602 56.8812 43.3973 57.6362 41.3987 58.237C37.3741 59.4467 31.9305 60.1668 26 60.1668C20.0695 60.1668 14.6258 59.4467 10.6013 58.237C8.60266 57.6362 6.83984 56.8812 5.53076 55.9509C4.29149 55.0702 3 53.6896 3 51.7502V45.4377C3 43.4982 4.29149 42.1177 5.53076 41.2369C6.83984 40.3066 8.60266 39.5516 10.6013 38.9508C14.6258 37.7411 20.0695 37.021 26 37.021C31.9305 37.021 37.3741 37.7411 41.3987 38.9508C43.3973 39.5516 45.1602 40.3066 46.4692 41.2369ZM26 39.1252C37.598 39.1252 47 41.9514 47 45.4377V51.7502C47 55.2365 37.598 58.0627 26 58.0627C14.402 58.0627 5 55.2365 5 51.7502V45.4377C5 41.9514 14.402 39.1252 26 39.1252Z" fill="#B96F00"/>
<path id="Ellipse 732_4" d="M47 45.4377C47 48.924 37.598 51.7502 26 51.7502C14.402 51.7502 5 48.924 5 45.4377C5 41.9514 14.402 39.1252 26 39.1252C37.598 39.1252 47 41.9514 47 45.4377Z" fill="#FFCF23"/>
<path id="Ellipse 732 (Stroke)_4" fill-rule="evenodd" clip-rule="evenodd" d="M41.3987 51.9245C37.3741 53.1342 31.9305 53.8543 26 53.8543C20.0695 53.8543 14.6258 53.1342 10.6013 51.9245C8.60266 51.3237 6.83984 50.5687 5.53076 49.6384C4.29149 48.7577 3 47.3771 3 45.4377C3 43.4982 4.29149 42.1177 5.53076 41.2369C6.83984 40.3066 8.60266 39.5516 10.6013 38.9508C14.6258 37.7411 20.0695 37.021 26 37.021C31.9305 37.021 37.3741 37.7411 41.3987 38.9508C43.3973 39.5516 45.1602 40.3066 46.4692 41.2369C47.7085 42.1177 49 43.4982 49 45.4377C49 47.3771 47.7085 48.7577 46.4692 49.6384C45.1602 50.5687 43.3973 51.3237 41.3987 51.9245ZM26 51.7502C37.598 51.7502 47 48.924 47 45.4377C47 41.9514 37.598 39.1252 26 39.1252C14.402 39.1252 5 41.9514 5 45.4377C5 48.924 14.402 51.7502 26 51.7502Z" fill="#B96F00"/>
<path id="Vector 607 (Stroke)_4" fill-rule="evenodd" clip-rule="evenodd" d="M10 49.646C10.5523 49.646 11 50.117 11 50.6981V56.4845C11 57.0656 10.5523 57.5366 10 57.5366C9.44772 57.5366 9 57.0656 9 56.4845V50.6981C9 50.117 9.44772 49.646 10 49.646Z" fill="#B96F00"/>
<path id="Vector 609 (Stroke)_4" fill-rule="evenodd" clip-rule="evenodd" d="M42 49.646C42.5523 49.646 43 50.117 43 50.6981V56.4845C43 57.0656 42.5523 57.5366 42 57.5366C41.4477 57.5366 41 57.0656 41 56.4845V50.6981C41 50.117 41.4477 49.646 42 49.646Z" fill="#B96F00"/>
<path id="Vector 608 (Stroke)_4" fill-rule="evenodd" clip-rule="evenodd" d="M18 51.7502C18.5523 51.7502 19 52.2213 19 52.8023V57.5367C19 58.1177 18.5523 58.5888 18 58.5888C17.4477 58.5888 17 58.1177 17 57.5367V52.8023C17 52.2213 17.4477 51.7502 18 51.7502Z" fill="#B96F00"/>
<path id="Vector 610 (Stroke)_4" fill-rule="evenodd" clip-rule="evenodd" d="M35 51.7502C35.5523 51.7502 36 52.2213 36 52.8023V57.5367C36 58.1177 35.5523 58.5888 35 58.5888C34.4477 58.5888 34 58.1177 34 57.5367V52.8023C34 52.2213 34.4477 51.7502 35 51.7502Z" fill="#B96F00"/>
<path id="Vector 611 (Stroke)_4" fill-rule="evenodd" clip-rule="evenodd" d="M27 51.7502C27.5523 51.7502 28 52.2213 28 52.8023V57.5367C28 58.1177 27.5523 58.5888 27 58.5888C26.4477 58.5888 26 58.1177 26 57.5367V52.8023C26 52.2213 26.4477 51.7502 27 51.7502Z" fill="#B96F00"/>
</g>
<g id="Group 988">
<path id="Union_7" d="M51 35.969C51 32.4827 41.598 29.6565 30 29.6565C18.402 29.6565 9 32.4827 9 35.969V42.2815C9 45.7678 18.402 48.594 30 48.594C41.598 48.594 51 45.7678 51 42.2815V35.969Z" fill="#D18A00"/>
<path id="Union (Stroke)_5" fill-rule="evenodd" clip-rule="evenodd" d="M50.4692 31.7682C51.7085 32.6489 53 34.0295 53 35.9689V42.2814C53 44.2208 51.7085 45.6014 50.4692 46.4821C49.1602 47.4125 47.3973 48.1674 45.3987 48.7682C41.3741 49.978 35.9305 50.6981 30 50.6981C24.0695 50.6981 18.6258 49.978 14.6013 48.7682C12.6027 48.1674 10.8398 47.4125 9.53076 46.4821C8.29149 45.6014 7 44.2208 7 42.2814V35.9689C7 34.0295 8.29149 32.6489 9.53076 31.7682C10.8398 30.8378 12.6027 30.0829 14.6013 29.4821C18.6258 28.2723 24.0695 27.5522 30 27.5522C35.9305 27.5522 41.3741 28.2723 45.3987 29.4821C47.3973 30.0829 49.1602 30.8378 50.4692 31.7682ZM30 29.6564C41.598 29.6564 51 32.4826 51 35.9689V42.2814C51 45.7677 41.598 48.5939 30 48.5939C18.402 48.5939 9 45.7677 9 42.2814V35.9689C9 32.4826 18.402 29.6564 30 29.6564Z" fill="#B96F00"/>
<path id="Ellipse 732_5" d="M51 35.969C51 39.4553 41.598 42.2815 30 42.2815C18.402 42.2815 9 39.4553 9 35.969C9 32.4827 18.402 29.6565 30 29.6565C41.598 29.6565 51 32.4827 51 35.969Z" fill="#FFCF23"/>
<path id="Ellipse 732 (Stroke)_5" fill-rule="evenodd" clip-rule="evenodd" d="M45.3987 42.4557C41.3741 43.6655 35.9305 44.3856 30 44.3856C24.0695 44.3856 18.6258 43.6655 14.6013 42.4557C12.6027 41.8549 10.8398 41.1 9.53076 40.1697C8.29149 39.2889 7 37.9084 7 35.9689C7 34.0295 8.29149 32.6489 9.53076 31.7682C10.8398 30.8378 12.6027 30.0829 14.6013 29.4821C18.6258 28.2723 24.0695 27.5522 30 27.5522C35.9305 27.5522 41.3741 28.2723 45.3987 29.4821C47.3973 30.0829 49.1602 30.8378 50.4692 31.7682C51.7085 32.6489 53 34.0295 53 35.9689C53 37.9084 51.7085 39.2889 50.4692 40.1697C49.1602 41.1 47.3973 41.8549 45.3987 42.4557ZM30 42.2814C41.598 42.2814 51 39.4552 51 35.9689C51 32.4826 41.598 29.6564 30 29.6564C18.402 29.6564 9 32.4826 9 35.9689C9 39.4552 18.402 42.2814 30 42.2814Z" fill="#B96F00"/>
<path id="Vector 607 (Stroke)_5" fill-rule="evenodd" clip-rule="evenodd" d="M14 40.1772C14.5523 40.1772 15 40.6483 15 41.2293V47.0158C15 47.5968 14.5523 48.0679 14 48.0679C13.4477 48.0679 13 47.5968 13 47.0158V41.2293C13 40.6483 13.4477 40.1772 14 40.1772Z" fill="#B96F00"/>
<path id="Vector 609 (Stroke)_5" fill-rule="evenodd" clip-rule="evenodd" d="M46 40.1772C46.5523 40.1772 47 40.6483 47 41.2293V47.0158C47 47.5968 46.5523 48.0679 46 48.0679C45.4477 48.0679 45 47.5968 45 47.0158V41.2293C45 40.6483 45.4477 40.1772 46 40.1772Z" fill="#B96F00"/>
<path id="Vector 608 (Stroke)_5" fill-rule="evenodd" clip-rule="evenodd" d="M22 42.2815C22.5523 42.2815 23 42.7525 23 43.3336V48.068C23 48.649 22.5523 49.12 22 49.12C21.4477 49.12 21 48.649 21 48.068V43.3336C21 42.7525 21.4477 42.2815 22 42.2815Z" fill="#B96F00"/>
<path id="Vector 610 (Stroke)_5" fill-rule="evenodd" clip-rule="evenodd" d="M39 42.2815C39.5523 42.2815 40 42.7525 40 43.3336V48.068C40 48.649 39.5523 49.12 39 49.12C38.4477 49.12 38 48.649 38 48.068V43.3336C38 42.7525 38.4477 42.2815 39 42.2815Z" fill="#B96F00"/>
<path id="Vector 611 (Stroke)_5" fill-rule="evenodd" clip-rule="evenodd" d="M31 42.2815C31.5523 42.2815 32 42.7525 32 43.3336V48.068C32 48.649 31.5523 49.12 31 49.12C30.4477 49.12 30 48.649 30 48.068V43.3336C30 42.7525 30.4477 42.2815 31 42.2815Z" fill="#B96F00"/>
</g>
<g id="Group 986">
<path id="Union_8" d="M44 27.5522C44 24.0659 34.598 21.2397 23 21.2397C11.402 21.2397 2 24.0659 2 27.5522V33.8647C2 37.351 11.402 40.1772 23 40.1772C34.598 40.1772 44 37.351 44 33.8647V27.5522Z" fill="#D18A00"/>
<path id="Union (Stroke)_6" fill-rule="evenodd" clip-rule="evenodd" d="M43.4692 23.3514C44.7085 24.2322 46 25.6127 46 27.5522V33.8647C46 35.8041 44.7085 37.1847 43.4692 38.0654C42.1602 38.9957 40.3973 39.7507 38.3987 40.3515C34.3741 41.5612 28.9305 42.2813 23 42.2813C17.0695 42.2813 11.6258 41.5612 7.60132 40.3515C5.60266 39.7507 3.83984 38.9957 2.53076 38.0654C1.29149 37.1847 0 35.8041 0 33.8647V27.5522C0 25.6127 1.29149 24.2322 2.53076 23.3514C3.83984 22.4211 5.60266 21.6661 7.60132 21.0653C11.6258 19.8556 17.0695 19.1355 23 19.1355C28.9305 19.1355 34.3741 19.8556 38.3987 21.0653C40.3973 21.6661 42.1602 22.4211 43.4692 23.3514ZM23 21.2397C34.598 21.2397 44 24.0659 44 27.5522V33.8647C44 37.351 34.598 40.1772 23 40.1772C11.402 40.1772 2 37.351 2 33.8647V27.5522C2 24.0659 11.402 21.2397 23 21.2397Z" fill="#B96F00"/>
<path id="Ellipse 732_6" d="M44 27.5522C44 31.0385 34.598 33.8647 23 33.8647C11.402 33.8647 2 31.0385 2 27.5522C2 24.0659 11.402 21.2397 23 21.2397C34.598 21.2397 44 24.0659 44 27.5522Z" fill="#FFCF23"/>
<path id="Ellipse 732 (Stroke)_6" fill-rule="evenodd" clip-rule="evenodd" d="M38.3987 34.039C34.3741 35.2487 28.9305 35.9688 23 35.9688C17.0695 35.9688 11.6258 35.2487 7.60132 34.039C5.60266 33.4382 3.83984 32.6832 2.53076 31.7529C1.29149 30.8722 0 29.4916 0 27.5522C0 25.6127 1.29149 24.2322 2.53076 23.3514C3.83984 22.4211 5.60266 21.6661 7.60132 21.0653C11.6258 19.8556 17.0695 19.1355 23 19.1355C28.9305 19.1355 34.3741 19.8556 38.3987 21.0653C40.3973 21.6661 42.1602 22.4211 43.4692 23.3514C44.7085 24.2322 46 25.6127 46 27.5522C46 29.4916 44.7085 30.8722 43.4692 31.7529C42.1602 32.6832 40.3973 33.4382 38.3987 34.039ZM23 33.8647C34.598 33.8647 44 31.0385 44 27.5522C44 24.0659 34.598 21.2397 23 21.2397C11.402 21.2397 2 24.0659 2 27.5522C2 31.0385 11.402 33.8647 23 33.8647Z" fill="#B96F00"/>
<path id="Vector 607 (Stroke)_6" fill-rule="evenodd" clip-rule="evenodd" d="M7 31.7605C7.55228 31.7605 8 32.2315 8 32.8126V38.599C8 39.1801 7.55228 39.6511 7 39.6511C6.44772 39.6511 6 39.1801 6 38.599V32.8126C6 32.2315 6.44772 31.7605 7 31.7605Z" fill="#B96F00"/>
<path id="Vector 609 (Stroke)_6" fill-rule="evenodd" clip-rule="evenodd" d="M39 31.7605C39.5523 31.7605 40 32.2315 40 32.8126V38.599C40 39.1801 39.5523 39.6511 39 39.6511C38.4477 39.6511 38 39.1801 38 38.599V32.8126C38 32.2315 38.4477 31.7605 39 31.7605Z" fill="#B96F00"/>
<path id="Vector 608 (Stroke)_6" fill-rule="evenodd" clip-rule="evenodd" d="M15 33.8647C15.5523 33.8647 16 34.3358 16 34.9168V39.6512C16 40.2323 15.5523 40.7033 15 40.7033C14.4477 40.7033 14 40.2323 14 39.6512V34.9168C14 34.3358 14.4477 33.8647 15 33.8647Z" fill="#B96F00"/>
<path id="Vector 610 (Stroke)_6" fill-rule="evenodd" clip-rule="evenodd" d="M32 33.8647C32.5523 33.8647 33 34.3358 33 34.9168V39.6512C33 40.2323 32.5523 40.7033 32 40.7033C31.4477 40.7033 31 40.2323 31 39.6512V34.9168C31 34.3358 31.4477 33.8647 32 33.8647Z" fill="#B96F00"/>
<path id="Vector 611 (Stroke)_6" fill-rule="evenodd" clip-rule="evenodd" d="M24 33.8647C24.5523 33.8647 25 34.3358 25 34.9168V39.6512C25 40.2323 24.5523 40.7033 24 40.7033C23.4477 40.7033 23 40.2323 23 39.6512V34.9168C23 34.3358 23.4477 33.8647 24 33.8647Z" fill="#B96F00"/>
</g>
<g id="Group 985">
<path id="Union_9" d="M53 18.0835C53 14.5972 43.598 11.771 32 11.771C20.402 11.771 11 14.5972 11 18.0835V24.396C11 27.8823 20.402 30.7085 32 30.7085C43.598 30.7085 53 27.8823 53 24.396V18.0835Z" fill="#D18A00"/>
<path id="Union (Stroke)_7" fill-rule="evenodd" clip-rule="evenodd" d="M52.4692 13.8827C53.7085 14.7634 55 16.144 55 18.0834V24.3959C55 26.3354 53.7085 27.7159 52.4692 28.5966C51.1602 29.527 49.3973 30.2819 47.3987 30.8827C43.3741 32.0925 37.9305 32.8126 32 32.8126C26.0695 32.8126 20.6258 32.0925 16.6013 30.8827C14.6027 30.2819 12.8398 29.527 11.5308 28.5966C10.2915 27.7159 9 26.3354 9 24.3959V18.0834C9 16.144 10.2915 14.7634 11.5308 13.8827C12.8398 12.9523 14.6027 12.1974 16.6013 11.5966C20.6258 10.3868 26.0695 9.66675 32 9.66675C37.9305 9.66675 43.3741 10.3868 47.3987 11.5966C49.3973 12.1974 51.1602 12.9523 52.4692 13.8827ZM32 11.7709C43.598 11.7709 53 14.5971 53 18.0834V24.3959C53 27.8822 43.598 30.7084 32 30.7084C20.402 30.7084 11 27.8822 11 24.3959V18.0834C11 14.5971 20.402 11.7709 32 11.7709Z" fill="#B96F00"/>
<path id="Ellipse 732_7" d="M53 18.0835C53 21.5698 43.598 24.396 32 24.396C20.402 24.396 11 21.5698 11 18.0835C11 14.5972 20.402 11.771 32 11.771C43.598 11.771 53 14.5972 53 18.0835Z" fill="#FFCF23"/>
<path id="Ellipse 732 (Stroke)_7" fill-rule="evenodd" clip-rule="evenodd" d="M47.3987 24.5702C43.3741 25.78 37.9305 26.5001 32 26.5001C26.0695 26.5001 20.6258 25.78 16.6013 24.5702C14.6027 23.9694 12.8398 23.2145 11.5308 22.2842C10.2915 21.4034 9 20.0229 9 18.0834C9 16.144 10.2915 14.7634 11.5308 13.8827C12.8398 12.9523 14.6027 12.1974 16.6013 11.5966C20.6258 10.3868 26.0695 9.66675 32 9.66675C37.9305 9.66675 43.3741 10.3868 47.3987 11.5966C49.3973 12.1974 51.1602 12.9523 52.4692 13.8827C53.7085 14.7634 55 16.144 55 18.0834C55 20.0229 53.7085 21.4034 52.4692 22.2842C51.1602 23.2145 49.3973 23.9694 47.3987 24.5702ZM32 24.3959C43.598 24.3959 53 21.5697 53 18.0834C53 14.5971 43.598 11.7709 32 11.7709C20.402 11.7709 11 14.5971 11 18.0834C11 21.5697 20.402 24.3959 32 24.3959Z" fill="#B96F00"/>
<path id="Vector 607 (Stroke)_7" fill-rule="evenodd" clip-rule="evenodd" d="M16 22.2917C16.5523 22.2917 17 22.7628 17 23.3438V29.1303C17 29.7113 16.5523 30.1824 16 30.1824C15.4477 30.1824 15 29.7113 15 29.1303V23.3438C15 22.7628 15.4477 22.2917 16 22.2917Z" fill="#B96F00"/>
<path id="Vector 609 (Stroke)_7" fill-rule="evenodd" clip-rule="evenodd" d="M48 22.2917C48.5523 22.2917 49 22.7628 49 23.3438V29.1303C49 29.7113 48.5523 30.1824 48 30.1824C47.4477 30.1824 47 29.7113 47 29.1303V23.3438C47 22.7628 47.4477 22.2917 48 22.2917Z" fill="#B96F00"/>
<path id="Vector 608 (Stroke)_7" fill-rule="evenodd" clip-rule="evenodd" d="M24 24.396C24.5523 24.396 25 24.867 25 25.4481V30.1825C25 30.7635 24.5523 31.2345 24 31.2345C23.4477 31.2345 23 30.7635 23 30.1825V25.4481C23 24.867 23.4477 24.396 24 24.396Z" fill="#B96F00"/>
<path id="Vector 610 (Stroke)_7" fill-rule="evenodd" clip-rule="evenodd" d="M41 24.396C41.5523 24.396 42 24.867 42 25.4481V30.1825C42 30.7635 41.5523 31.2345 41 31.2345C40.4477 31.2345 40 30.7635 40 30.1825V25.4481C40 24.867 40.4477 24.396 41 24.396Z" fill="#B96F00"/>
<path id="Vector 611 (Stroke)_7" fill-rule="evenodd" clip-rule="evenodd" d="M33 24.396C33.5523 24.396 34 24.867 34 25.4481V30.1825C34 30.7635 33.5523 31.2345 33 31.2345C32.4477 31.2345 32 30.7635 32 30.1825V25.4481C32 24.867 32.4477 24.396 33 24.396Z" fill="#B96F00"/>
</g>
<g id="Group 984">
<path id="Union_10" d="M47 8.61475C47 5.12845 37.598 2.30225 26 2.30225C14.402 2.30225 5 5.12845 5 8.61475V14.9272C5 18.4135 14.402 21.2397 26 21.2397C37.598 21.2397 47 18.4135 47 14.9272V8.61475Z" fill="#D18A00"/>
<path id="Union (Stroke)_8" fill-rule="evenodd" clip-rule="evenodd" d="M46.4692 4.41393C47.7085 5.29466 49 6.67523 49 8.61466V14.9272C49 16.8666 47.7085 18.2472 46.4692 19.1279C45.1602 20.0582 43.3973 20.8132 41.3987 21.414C37.3741 22.6237 31.9305 23.3438 26 23.3438C20.0695 23.3438 14.6258 22.6237 10.6013 21.414C8.60266 20.8132 6.83984 20.0582 5.53076 19.1279C4.29149 18.2472 3 16.8666 3 14.9272V8.61466C3 6.67522 4.29149 5.29466 5.53076 4.41393C6.83984 3.48358 8.60266 2.72863 10.6013 2.12785C14.6258 0.918091 20.0695 0.197998 26 0.197998C31.9305 0.197998 37.3741 0.918091 41.3987 2.12785C43.3973 2.72863 45.1602 3.48358 46.4692 4.41393ZM26 2.30216C37.598 2.30216 47 5.12837 47 8.61466V14.9272C47 18.4135 37.598 21.2397 26 21.2397C14.402 21.2397 5 18.4135 5 14.9272V8.61466C5 5.12837 14.402 2.30216 26 2.30216Z" fill="#B96F00"/>
<path id="Ellipse 732_8" d="M47 8.61475C47 12.101 37.598 14.9272 26 14.9272C14.402 14.9272 5 12.101 5 8.61475C5 5.12845 14.402 2.30225 26 2.30225C37.598 2.30225 47 5.12845 47 8.61475Z" fill="#FFD952"/>
<path id="Ellipse 732 (Stroke)_8" fill-rule="evenodd" clip-rule="evenodd" d="M41.3987 15.1015C37.3741 16.3112 31.9305 17.0313 26 17.0313C20.0695 17.0313 14.6258 16.3112 10.6013 15.1015C8.60266 14.5007 6.83984 13.7457 5.53076 12.8154C4.29149 11.9347 3 10.5541 3 8.61466C3 6.67523 4.29149 5.29466 5.53076 4.41393C6.83984 3.48358 8.60266 2.72863 10.6013 2.12785C14.6258 0.918091 20.0695 0.197998 26 0.197998C31.9305 0.197998 37.3741 0.918091 41.3987 2.12785C43.3973 2.72863 45.1602 3.48358 46.4692 4.41393C47.7085 5.29466 49 6.67523 49 8.61466C49 10.5541 47.7085 11.9347 46.4692 12.8154C45.1602 13.7457 43.3973 14.5007 41.3987 15.1015ZM26 14.9272C37.598 14.9272 47 12.101 47 8.61466C47 5.12837 37.598 2.30216 26 2.30216C14.402 2.30216 5 5.12837 5 8.61466C5 12.101 14.402 14.9272 26 14.9272Z" fill="#B96F00"/>
<path id="Ellipse 734" d="M38 8.08854C38 10.1222 32.6274 11.7708 26 11.7708C19.3726 11.7708 14 10.1222 14 8.08854C14 6.05487 19.3726 4.40625 26 4.40625C32.6274 4.40625 38 6.05487 38 8.08854Z" fill="#FEE790"/>
<path id="Vector 607 (Stroke)_8" fill-rule="evenodd" clip-rule="evenodd" d="M10 12.823C10.5523 12.823 11 13.294 11 13.8751V19.6615C11 20.2426 10.5523 20.7136 10 20.7136C9.44772 20.7136 9 20.2426 9 19.6615V13.8751C9 13.294 9.44772 12.823 10 12.823Z" fill="#B96F00"/>
<path id="Vector 609 (Stroke)_8" fill-rule="evenodd" clip-rule="evenodd" d="M42 12.823C42.5523 12.823 43 13.294 43 13.8751V19.6615C43 20.2426 42.5523 20.7136 42 20.7136C41.4477 20.7136 41 20.2426 41 19.6615V13.8751C41 13.294 41.4477 12.823 42 12.823Z" fill="#B96F00"/>
<path id="Vector 608 (Stroke)_8" fill-rule="evenodd" clip-rule="evenodd" d="M18 14.9272C18.5523 14.9272 19 15.3983 19 15.9793V20.7137C19 21.2948 18.5523 21.7658 18 21.7658C17.4477 21.7658 17 21.2948 17 20.7137V15.9793C17 15.3983 17.4477 14.9272 18 14.9272Z" fill="#B96F00"/>
<path id="Vector 610 (Stroke)_8" fill-rule="evenodd" clip-rule="evenodd" d="M35 14.9272C35.5523 14.9272 36 15.3983 36 15.9793V20.7137C36 21.2948 35.5523 21.7658 35 21.7658C34.4477 21.7658 34 21.2948 34 20.7137V15.9793C34 15.3983 34.4477 14.9272 35 14.9272Z" fill="#B96F00"/>
<path id="Vector 611 (Stroke)_8" fill-rule="evenodd" clip-rule="evenodd" d="M27 14.9272C27.5523 14.9272 28 15.3983 28 15.9793V20.7137C28 21.2948 27.5523 21.7658 27 21.7658C26.4477 21.7658 26 21.2948 26 20.7137V15.9793C26 15.3983 26.4477 14.9272 27 14.9272Z" fill="#B96F00"/>
<path id="Ellipse 733 (Stroke)" fill-rule="evenodd" clip-rule="evenodd" d="M6 7.5625C6.55228 7.5625 7 8.03353 7 8.61458C7 8.76563 7.12737 9.18367 8.02139 9.76888C8.86214 10.3192 10.1452 10.8533 11.8195 11.3168C15.1532 12.2398 19.8136 12.8229 25 12.8229C25.5523 12.8229 26 13.294 26 13.875C26 14.456 25.5523 14.9271 25 14.9271C19.693 14.9271 14.8534 14.3326 11.3105 13.3517C9.54641 12.8633 8.04699 12.2638 6.96484 11.5555C5.93596 10.882 5 9.91616 5 8.61458C5 8.03353 5.44772 7.5625 6 7.5625Z" fill="#FFF1B9"/>
</g>
</g>
</svg>
